{"title":"ExxxtraSmall.14.06.08.Alaina.Kristar.XXX.720p.MP4-DV3","uid":10317000,"size":729841006,"categoryP":"porn","categoryS":"other","magnet":"?xt=urn:btih:d6fd6694c499f72e2c32fb9cab0ede256200be45&amp;dn=ExxxtraSmall.14.06.08.Alaina.Kristar.XXX.720p.MP4-DV3&amp;tr=udp%3A%2F%2Ftracker.openbittorrent.com%3A80&amp;tr=udp%3A%2F%2Fopen.demonii.com%3A1337&amp;tr=udp%3A%2F%2Ftracker.coppersurfer.tk%3A6969&amp;tr=udp%3A%2F%2Fexodus.desync.com%3A6969","seeders":0,"leechers":0,"uploader":"rturner77","files":-1,"time":1402259164,"description":"Screens:\n &lt;a href=&quot;\nhttp://bayimg.com/aaoPOAafj&quot; rel=&quot;nofollow&quot; target=&quot;_NEW&quot;&gt;\nhttp://bayimg.com/aaoPOAafj&lt;/a&gt;\n\n\n\nGeneral\nComplete name                               /extra720.mp4\nFormat                                   : MPEG-4\nFormat profile                           : Base Media\nCodec ID                                 : isom\nFile size                                : 696 MiB\nDuration                                 : 31mn 10s\nOverall bit rate mode                    : Variable\nOverall bit rate                         : 3 120 Kbps\nWriting application                      : Lavf53.21.1\n\nVideo\nID                                       : 1\nFormat                                   : AVC\nFormat/Info                              : Advanced Video Codec\nFormat profile                           : &lt;a class=&quot;__cf_email__&quot; href=&quot;/cdn-cgi/l/email-protection&quot; data-cfemail=&quot;074a666e69474b342936&quot;&gt;[email&amp;#160;protected]&lt;/a&gt;&lt;script cf-hash='f9e31' type=&quot;text/javascript&quot;&gt;\n/* &lt;![CDATA[ */!function(){try{var t=&quot;currentScript&quot;in document?document.currentScript:function(){for(var t=document.getElementsByTagName(&quot;script&quot;),e=t.length;e--;)if(t[e].getAttribute(&quot;cf-hash&quot;))return t[e]}();if(t&amp;&amp;t.previousSibling){var e,r,n,i,c=t.previousSibling,a=c.getAttribute(&quot;data-cfemail&quot;);if(a){for(e=&quot;&quot;,r=parseInt(a.substr(0,2),16),n=2;a.length-n;n+=2)i=parseInt(a.substr(n,2),16)^r,e+=String.fromCharCode(i);e=document.createTextNode(e),c.parentNode.replaceChild(e,c)}}}catch(u){}}();/* ]]&gt; */&lt;/script&gt;\nFormat settings, CABAC                   : Yes\nFormat settings, ReFrames                : 5 frames\nCodec ID                                 : avc1\nCodec ID/Info                            : Advanced Video Coding\nDuration                                 : 31mn 10s\nBit rate                                 : 2 929 Kbps\nWidth                                    : 1 280 pixels\nHeight                                   : 720 pixels\nDisplay aspect ratio                     : 16:9\nFrame rate mode                          : Constant\nFrame rate                               : 23.976 fps\nColor space                              : YUV\nChroma subsampling                       : 4:2:0\nBit depth                                : 8 bits\nScan type                                : Progressive\nBits/(Pixel*Frame)                       : 0.133\nStream size                              : 653 MiB (94%)\nWriting library                          : x264 core 123 r2189 35cf912\nEncoding settings                        : cabac=1 / ref=5 / deblock=1:0:0 / analyse=0x1:0x111 / me=umh / subme=8 / psy=1 / psy_rd=1.00:0.00 / mixed_ref=0 / me_range=16 / chroma_me=1 / trellis=1 / 8x8dct=0 / cqm=0 / deadzone=21,11 / fast_pskip=1 / chroma_qp_offset=-2 / threads=12 / sliced_threads=0 / nr=0 / decimate=1 / interlaced=0 / bluray_compat=0 / constrained_intra=0 / bframes=3 / b_pyramid=0 / b_adapt=2 / b_bias=0 / direct=3 / weightb=0 / open_gop=1 / weightp=2 / keyint=250 / keyint_min=23 / scenecut=40 / intra_refresh=0 / rc_lookahead=50 / rc=crf / mbtree=1 / crf=20.0 / qcomp=0.60 / qpmin=0 / qpmax=69 / qpstep=4 / ip_ratio=1.25 / aq=1:1.00\nLanguage                                 : English\n\nAudio\nID                                       : 2\nFormat                                   : AAC\nFormat/Info                              : Advanced Audio Codec\nFormat profile                           : LC\nCodec ID                                 : 40\nDuration                                 : 31mn 10s\nBit rate mode                            : Variable\nBit rate                                 : 185 Kbps\nChannel(s)                               : 2 channels\nChannel positions                        : Front: L R\nSampling rate                            : 44.1 KHz\nCompression mode                         : Lossy\nDelay relative to video                  : -125ms\nStream size                              : 41.3 MiB (6%)\nLanguage                                 : English","torrent":{"xt":"urn:btih:d6fd6694c499f72e2c32fb9cab0ede256200be45","amp;dn":"ExxxtraSmall.14.06.08.Alaina.Kristar.XXX.720p.MP4-DV3","amp;tr":["udp%3A%2F%2Ftracker.openbittorrent.com%3A80","udp%3A%2F%2Fopen.demonii.com%3A1337","udp%3A%2F%2Ftracker.coppersurfer.tk%3A6969","udp%3A%2F%2Fexodus.desync.com%3A6969"],"infoHash":"d6fd6694c499f72e2c32fb9cab0ede256200be45","infoHashBuffer":{"type":"Buffer","data":[214,253,102,148,196,153,247,46,44,50,251,156,171,14,222,37,98,0,190,69]},"announce":[],"urlList":[]}}